<svg width="32" height="32" viewBox="0 0 32 32" fill="none" xmlns="http://www.w3.org/2000/svg">
<path fill-rule="evenodd" clip-rule="evenodd" d="M15.9998 8.33334C16.5521 8.33334 16.9998 8.78106 16.9998 9.33334L16.9998 22.6667C16.9998 23.219 16.5521 23.6667 15.9998 23.6667C15.4476 23.6667 14.9998 23.219 14.9998 22.6667L14.9998 9.33334C14.9998 8.78106 15.4476 8.33334 15.9998 8.33334ZM21.3332 12.3333C21.8855 12.3333 22.3332 12.7811 22.3332 13.3333V18.6667C22.3332 19.219 21.8855 19.6667 21.3332 19.6667C20.7809 19.6667 20.3332 19.219 20.3332 18.6667V13.3333C20.3332 12.7811 20.7809 12.3333 21.3332 12.3333ZM11.6665 13.3333C11.6665 12.7811 11.2188 12.3333 10.6665 12.3333C10.1142 12.3333 9.6665 12.7811 9.6665 13.3333L9.6665 18.6667C9.6665 19.219 10.1142 19.6667 10.6665 19.6667C11.2188 19.6667 11.6665 19.219 11.6665 18.6667L11.6665 13.3333Z" fill="#FFF4EB"/>
</svg>
