<svg width="14" height="16" viewBox="0 0 14 16" fill="none" xmlns="http://www.w3.org/2000/svg">
<path fill-rule="evenodd" clip-rule="evenodd" d="M6.99984 0.333344C7.55212 0.333344 7.99984 0.781059 7.99984 1.33334L7.99984 14.6667C7.99984 15.219 7.55212 15.6667 6.99984 15.6667C6.44755 15.6667 5.99984 15.219 5.99984 14.6667L5.99984 1.33334C5.99984 0.781059 6.44755 0.333344 6.99984 0.333344ZM12.3332 4.33334C12.8855 4.33334 13.3332 4.78106 13.3332 5.33334V10.6667C13.3332 11.219 12.8855 11.6667 12.3332 11.6667C11.7809 11.6667 11.3332 11.219 11.3332 10.6667V5.33334C11.3332 4.78106 11.7809 4.33334 12.3332 4.33334ZM2.6665 5.33334C2.6665 4.78106 2.21879 4.33334 1.6665 4.33334C1.11422 4.33334 0.666504 4.78106 0.666504 5.33334V10.6667C0.666504 11.219 1.11422 11.6667 1.6665 11.6667C2.21879 11.6667 2.6665 11.219 2.6665 10.6667L2.6665 5.33334Z" fill="#FFF4EB"/>
</svg>
